<svg xmlns="http://www.w3.org/2000/svg" viewBox="0 0 46 46" width="61.333" height="61.333" xmlns:v="https://vecta.io/nano"><defs><clipPath id="A"><path d="M0 0h46v46H0z"/></clipPath></defs><g clip-path="url(#A)"><clipPath id="B"><path fill="#fff" d="M0 0h46v46H0z"/></clipPath><g clip-path="url(#B)"><clipPath id="C"><path fill="#fff" d="M0 0h46v46H0z"/></clipPath><g clip-path="url(#C)"><path d="M10.132 7.656c-10.413 1.44-8.961 9.67-6.325 17.594s7.325 12.03 16.869 14.105 17.203-.586 20.493-2.946 4.56-7.808 2.078-11.44-6.021-2.815-7.188-9.83-6.554-8.293-10.958-8.813-10.647.732-14.969 1.33z" fill="#e6e6e6"/><path d="M3.942 16.811C-3.843 25.09 1.998 32.094 8.645 38.02s12.835 6.798 21.885 2.495 13.875-11.941 15.259-16.4-.639-10.572-4.739-12.446-6.559 1.257-11.48-4.76-10.09-3.692-14.019-1.284-8.378 7.75-11.609 11.186z"/></g></g><path d="M33.229 22.628a16.2 16.2 0 0 0 .187-2.215c-.006-3.511-1.687-4.754-2.01-5.336.476-2.661-.079-3.871-.338-4.286-.952-.338-3.313.873-4.603 1.725-2.104-.616-6.549-.555-8.216.16-3.076-2.203-4.703-1.867-4.703-1.867s-1.052 1.886-.278 4.645c-1.012 1.29-1.766 2.201-1.766 4.62a14.3 14.3 0 0 0 .097 1.653c.871 4.583 4.502 6.56 8.069 6.9-.536.408-1.181 1.18-1.27 2.074-.674.436-2.031.581-3.086.249-1.478-.467-2.044-3.394-4.257-2.977-.479.09-.384.406.031.675.674.438 1.309.981 1.799 2.145.376.893 1.166 2.488 3.667 2.488.992 0 1.688-.117 1.688-.117l.018 3.164c0 1.021-1.378 1.308-1.378 1.798 0 .195.456.214.823.214.725 0 2.233-.604 2.233-1.666l.013-4.176c0-1.085.582-1.43.582-1.43s.071 5.792-.14 6.568c-.248.914-.696.784-.696 1.19 0 .607 1.813.149 2.414-1.179.465-1.037.257-6.717.257-6.717l.485-.011-.011 3.79c-.018 1.231-.145 2.787.586 3.522.48.483 1.95 1.331 1.95.556 0-.449-1.029-.82-1.029-2.036v-5.603c.625 0 .755 1.842.755 1.842l.225 3.421s-.15 1.249 1.349 1.77c.529.185 1.66.236 1.713-.075s-1.362-.773-1.376-1.74c-.007-.588.027-.933.027-3.492s-.344-3.505-1.542-4.26c3.473-.356 7.081-1.907 7.731-5.986z" fill="#fff"/></g></svg>