<svg xmlns="http://www.w3.org/2000/svg" width="60" height="60" xmlns:v="https://vecta.io/nano"><defs><clipPath id="A"><path d="M0 0h60v60H0z"/></clipPath></defs><g clip-path="url(#A)"><clipPath id="B"><path fill="#fff" d="M0 0h60v60H0z"/></clipPath><g clip-path="url(#B)"><path d="M13.216 9.986C-.367 11.865 1.528 22.599 4.966 32.935s9.554 15.691 22.003 18.397 22.439-.764 26.73-3.842 5.948-10.184 2.71-14.922-7.854-3.672-9.376-12.821S38.485 8.929 32.741 8.251s-13.888.955-19.525 1.735z" fill="#e6e6e6"/><linearGradient id="C" x1=".29" y1="30.197" x2="60.29" y2="30.197" gradientUnits="userSpaceOnUse"><stop offset="0%" stop-color="#ef804e"/><stop offset="34.32053173715783%" stop-color="#d92e55"/><stop offset="55.76584423715782%" stop-color="#8a4c99"/><stop offset="98.69565217391305%" stop-color="#5756a2"/></linearGradient><path d="M5.142 21.927c-10.155 10.799-2.536 19.935 6.134 27.664s16.741 8.867 28.546 3.255S57.919 37.27 59.725 31.454s-.834-13.789-6.181-16.233-8.556 1.639-14.974-6.209-13.161-4.816-18.286-1.675S9.356 17.445 5.142 21.927z" fill="url(#C)"/><path d="M30.29 17.083l6.467.094c4.339.197 6.36 2.253 6.56 6.557l.091 6.464-.091 6.464c-.2 4.301-2.219 6.363-6.56 6.56l-6.467.093c-4.272 0-4.778-.016-6.464-.093-4.346-.2-6.36-2.264-6.56-6.56l-.093-6.464.093-6.464c.198-4.307 2.219-6.363 6.56-6.56l6.464-.091zm0-2.885l-6.597.099c-5.813.266-9.04 3.49-9.307 9.304-.077 1.709-.096 2.253-.096 6.597l.096 6.597c.267 5.811 3.494 9.04 9.307 9.307 1.709.077 2.251.096 6.597.096s4.891-.019 6.6-.096c5.803-.267 9.043-3.491 9.304-9.307.078-1.706.096-2.25.096-6.597l-.096-6.597c-.261-5.806-3.49-9.04-9.304-9.304-1.709-.08-2.253-.099-6.6-.099zm0 7.784a8.22 8.22 0 0 0-8.216 8.216 8.22 8.22 0 0 0 8.216 8.216 8.22 8.22 0 0 0 8.216-8.216 8.22 8.22 0 0 0-8.216-8.216zm0 13.549c-2.946 0-5.333-2.386-5.333-5.333s2.387-5.333 5.333-5.333 5.336 2.386 5.336 5.333-2.392 5.333-5.336 5.333zm8.539-15.792a1.92 1.92 0 1 0 0 3.84 1.92 1.92 0 1 0 0-3.84z" fill="#fff"/></g></g></svg>