<svg xmlns="http://www.w3.org/2000/svg" width="60" height="60" xmlns:v="https://vecta.io/nano"><defs><clipPath id="A"><path d="M0 0h60v60H0z"/></clipPath></defs><g clip-path="url(#A)"><clipPath id="B"><path fill="#fff" d="M0 0h60v60H0z"/></clipPath><g clip-path="url(#B)"><path d="M5.338 21.395C-5.37 29.961 1.751 38.213 9.995 45.333s16.238 8.591 28.318 4.544S57.2 37.738 59.311 32.897s-.101-11.793-5.309-14.206-8.626.864-14.616-6.217-12.881-4.919-18.162-2.562S9.781 17.841 5.338 21.395z" fill="#dcdcdc"/><path d="M29.812 3.728C16.269-2.301 10.155 7.904 5.714 18.636s-2.855 18.728 6.335 28.025 20.669 11.952 26.755 11.741 12.745-5.331 13.29-11.185-4.367-7.538.927-16.183.21-14.014-4.444-17.817S35.432 6.23 29.812 3.728z" fill="#1378b6"/><path d="M20.655 15.807c0 1.842-1.48 3.334-3.307 3.334s-3.306-1.492-3.306-3.334 1.48-3.333 3.306-3.333 3.307 1.493 3.307 3.333zm.027 6h-6.667v21.334h6.667V21.807h0zm10.642 0H24.7v21.334h6.626V31.942c0-6.227 8.038-6.736 8.038 0v11.199h6.651V29.633c0-10.507-11.896-10.124-14.691-4.952v-2.874h0z" fill="#fff"/></g></g></svg>