<?xml version="1.0" standalone="no"?><!-- Generator: Gravit.io --><svg xmlns="http://www.w3.org/2000/svg" xmlns:xlink="http://www.w3.org/1999/xlink" style="isolation:isolate" viewBox="0 0 60 60" width="60" height="60"><defs><clipPath id="_clipPath_VL46wuxiexiVdpkO8x9QnDy7ZRKay4Ms"><rect width="60" height="60"/></clipPath></defs><g clip-path="url(#_clipPath_VL46wuxiexiVdpkO8x9QnDy7ZRKay4Ms)"><clipPath id="_clipPath_VJcpF0MXLPm5BwrCOIpaGgS4h7z7z0CQ"><rect x="0" y="0" width="60" height="60" transform="matrix(1,0,0,1,0,0)" fill="rgb(255,255,255)"/></clipPath><g clip-path="url(#_clipPath_VJcpF0MXLPm5BwrCOIpaGgS4h7z7z0CQ)"><g><path d=" M 5.338 21.395 C -5.37 29.961 1.751 38.213 9.995 45.333 C 18.238 52.454 26.233 53.924 38.313 49.877 C 50.393 45.831 57.2 37.738 59.311 32.897 C 61.422 28.057 59.21 21.104 54.002 18.691 C 48.795 16.278 45.376 19.555 39.386 12.474 C 33.397 5.393 26.505 7.555 21.224 9.912 C 15.943 12.269 9.781 17.841 5.338 21.395 Z " fill="rgb(220,220,220)"/><path d=" M 29.812 3.728 C 16.269 -2.301 10.155 7.904 5.714 18.636 C 1.273 29.369 2.859 37.364 12.049 46.661 C 21.238 55.957 32.718 58.613 38.804 58.402 C 44.891 58.19 51.549 53.071 52.094 47.217 C 52.638 41.364 47.727 39.679 53.021 31.034 C 58.316 22.388 53.231 17.02 48.577 13.217 C 43.922 9.414 35.432 6.23 29.812 3.728 Z " fill="rgb(19,120,182)"/><path d=" M 20.655 15.807 C 20.655 17.649 19.175 19.141 17.348 19.141 C 15.522 19.141 14.042 17.649 14.042 15.807 C 14.042 13.967 15.522 12.474 17.348 12.474 C 19.175 12.474 20.655 13.967 20.655 15.807 Z  M 20.682 21.807 L 14.015 21.807 L 14.015 43.141 L 20.682 43.141 L 20.682 21.807 L 20.682 21.807 Z  M 31.324 21.807 L 24.7 21.807 L 24.7 43.141 L 31.326 43.141 L 31.326 31.942 C 31.326 25.715 39.364 25.206 39.364 31.942 L 39.364 43.141 L 46.015 43.141 L 46.015 29.633 C 46.015 19.126 34.119 19.509 31.324 24.681 L 31.324 21.807 L 31.324 21.807 Z " fill="rgb(255,255,255)"/></g></g></g></svg>